<?xml version="1.0" standalone="no"?>
<svg contentScriptType="text/ecmascript" xmlns:xlink="http://www.w3.org/1999/xlink" baseProfile="full" zoomAndPan="magnify"
    contentStyleType="text/css" viewBox="600 500 800 850" id="Layer_1" data-name="Layer 1" preserveAspectRatio="xMidYMid meet"
    xmlns="http://www.w3.org/2000/svg" version="1.0">
    <defs>
        <style>.cls-1{fill:url(#linear-gradient);}.cls-2{fill:url(#linear-gradient-2);}.cls-3{fill:url(#linear-gradient-3);}.cls-4{fill:url(#linear-gradient-4);}.cls-5{fill:#ef3e3d;}.cls-6{fill:#fec82c;}.cls-7{fill:#507a91;}.cls-8{fill:#ad1f23;}.cls-9{fill:#416777;}</style>
        <linearGradient x1="697.68" gradientUnits="userSpaceOnUse" x2="697.68" y1="1357.54" y2="1515.44" id="linear-gradient">
            <stop offset="0"/>
            <stop stop-color="#373737" offset="0.57"/>
            <stop stop-color="#636464" offset="1"/>
        </linearGradient>
        <linearGradient x1="896.61" xlink:href="#linear-gradient"
            x2="896.61" y1="1357.54" y2="1515.44" id="linear-gradient-2"/>
        <linearGradient x1="1086.8" xlink:href="#linear-gradient"
            x2="1086.8" y1="1357.54" y2="1515.44" id="linear-gradient-3"/>
        <linearGradient x1="1280.39" xlink:href="#linear-gradient"
            x2="1280.39" y1="1357.54" y2="1515.44" id="linear-gradient-4"/>
    </defs>
    <title>Untitled-2</title>
    <path fill="none" d=
        "M856.52,1037.14c.94-.8,1.91-1.57,2.86-2.36,0-.09,0-.19,0-.28,1.13-3.47,2.37-6.8,3.58-10.16-21.75,16.49-42.29,34.65-60,55.75,10.68-4.89,18.92-12.8,27.57-20.15S847.77,1044.65,856.52,1037.14Z"
        class="cls-5" display="block" stroke-opacity="0"/>
    <path fill="none" d=
        "M1248.84,872.66c12.77-2.63,25.51-5.43,38.17-8.61,1.59-.4,3-1.16,3.73-5.11-14.33,2.48-28,4.71-41.53,7.24C1249.12,868.32,1249,870.5,1248.84,872.66Z"
        class="cls-5" display="block" stroke-opacity="0"/>
    <path fill="none" d=
        "M1045.12,633.82l.59.19c1.85.55,3.64,1.19,5.45,1.8.06-.34.11-.67.17-1a23.7,23.7,0,0,1-2.85-4.38,25.42,25.42,0,0,1-1.84-6.19c-.54,3.12-1.15,6.23-1.65,9.35Z"
        class="cls-5" display="block" stroke-opacity="0"/>
    <path fill="none" d=
        "M1254.18,818.64c.57,1.47,1.14,2.93,1.72,4.4,20.13-7.73,41.75-11.63,59.38-25.76C1294.29,802.76,1274.27,810.81,1254.18,818.64Z"
        class="cls-5" display="block" stroke-opacity="0"/>
    <path fill="none" d=
        "M1221.7,997.66c5.7,2.11,11.52,4,19.34,2.45-1.85-1.16-8.37-3.85-17.54-7.37C1222.94,994.37,1222.29,996,1221.7,997.66Z"
        class="cls-5" display="block" stroke-opacity="0"/>
    <path fill="none" d=
        "M1157.85,644.54c2.58-4.64,5.06-9.36,7.38-14.17,1.6-3.31,2.9-6.43.06-10.45-5.44,6.19-8.77,13.43-12.19,20.54C1154.68,641.8,1156.26,643.14,1157.85,644.54Z"
        class="cls-5" display="block" stroke-opacity="0"/>
    <path fill="none" d=
        "M1214.21,661.86c15.33-19.21,32.48-36.9,47.06-56.72,2.62-3.55,6-7,5-12.31-1.44.28-2.53.15-2.91.61q-29.47,35.76-58.8,71.66c-.61.75-.43,2.13-.92,4.87C1209.18,668,1211.8,664.88,1214.21,661.86Z"
        class="cls-6" display="block" stroke-opacity="0"/>
    <path fill="none" d=
        "M1374.37,911.28c-11.49.25-23.15,1.25-34.45.72-30.64-1.44-61.23-.13-91.83-.72-1.22,0-2.4.09-3.6.17-.33,2-.62,4-1,6.09,47.28-.3,94.63-.66,143-1C1382.44,910.58,1378.24,911.2,1374.37,911.28Z"
        class="cls-6" display="block" stroke-opacity="0"/>
    <path fill="none" d=
        "M1238.6,771.94c.59,2,1.2,4.1,1.74,6.17,47-26.86,106.81-62.91,111.14-68-24.11,7.34-41.66,22.85-61.85,33.29Q1263.65,756.87,1238.6,771.94Z"
        class="cls-6" display="block" stroke-opacity="0"/>
    <path fill="none" d=
        "M1219.92,724.43c1,2,2,3.91,2.94,5.91,33.23-27.89,71.17-60.74,72.56-64.79-5.47-.23-8.75,3.47-12.13,6.37-18.38,15.84-37.51,30.77-56.19,46.23C1224.65,720.17,1222.33,722.36,1219.92,724.43Z"
        class="cls-5" display="block" stroke-opacity="0"/>
    <path fill="none" d=
        "M764.74,876.19c-1.51-2.27-3-4.51-4.32-6.9-10.37-1.46-20.66-3.48-31-5.22-7.59-1.27-15.46-1.94-23.17.82,13.92,4.77,28.5,5.94,42.71,8.85C754.18,874.8,759.45,875.55,764.74,876.19Z"
        class="cls-6" display="block" stroke-opacity="0"/>
    <path fill="none" d=
        "M883.15,978.78c-5.09,3.13-10.23,6.15-15.56,8.8-37.12,18.41-71.88,40.81-107.39,61.95-6.37,3.8-12.9,7.66-19.68,15.54,7.36-2.26,87.87-48.73,139.09-79.34C880.78,983.4,882,981.07,883.15,978.78Z"
        class="cls-5" display="block" stroke-opacity="0"/>
    <path fill="none" d=
        "M1259.92,1012.06c15.62,5.62,31.23,11.25,46.9,16.69,3.22,1.12,6.71,1.63,11.18-1.58-2.85-1.55-4.12-2.5-5.56-3-13.85-4.62-27.88-8.7-41.39-14.34-4-1.67-8.2-2.82-12.32-4.15-1.12-.36-2.38-.62-3.13.66-1,1.69-.14,3,1.23,3.93A13.07,13.07,0,0,0,1259.92,1012.06Z"
        class="cls-5" display="block" stroke-opacity="0"/>
    <path fill="none" d=
        "M1112.5,611.56c13.56-34.67,25.34-69.91,24.86-78.73a37.46,37.46,0,0,0-7.33,12.49c-4.94,13-7.9,26.71-13.43,39.28-3.45,7.82-6.61,15.75-9.69,23.7C1108.68,609.28,1110.62,610.45,1112.5,611.56Z"
        class="cls-6" display="block" stroke-opacity="0"/>
    <path fill="none" d=
        "M784.47,1090.66c-4.25,3.51-8.13,7.6-12.77,10.47-10.59,6.56-18.32,16.32-27.85,24-1.85,1.5-3.91,3.88-2.82,8.71,14.53-8.93,24.34-21.82,37.22-30.94a119.22,119.22,0,0,0,10-8.36c1.39-1.24,3.29-2.84,1.32-4.84S786,1089.41,784.47,1090.66Z"
        class="cls-5" display="block" stroke-opacity="0"/>
    <path fill="none" d=
        "M750.11,917.28a18.89,18.89,0,0,1,12.91-.81c5.22,1.39,10.33,1.08,15.41.23,6.37-1.08,12.74-.77,19.11-.73q38.18.21,76.35.6c1.64,0,3.35-.11,3.61-2.06a2.46,2.46,0,0,0-3-2.81c-10,1.87-19.85-1.07-29.83-.18-8.23.74-16.56.47-24.85.51-19.48.11-39,0-58.43.31-6.09.1-12.16,1.37-19.32,2.24C744.93,918,747.21,918.62,750.11,917.28Z"
        class="cls-5" display="block" stroke-opacity="0"/>
    <path fill="none" d=
        "M1192.72,1027.91a24.72,24.72,0,0,1-3.45-.32c16.54,9.15,33.19,18.1,49.65,27.36,5.25,3,10.82,7.41,18.4,6.4-2.37-2.41-26.91-17.1-57.13-34.58A25.23,25.23,0,0,1,1192.72,1027.91Z"
        class="cls-5" display="block" stroke-opacity="0"/>
    <path fill="none" d=
        "M1313.86,858.52c15.18,1.84,80-10,97.89-18.09-7-3.21-12-1-16.68-.06-24.47,5.14-49,10-73.71,13.65C1318.53,854.44,1315.66,855.25,1313.86,858.52Z"
        class="cls-5" display="block" stroke-opacity="0"/>
    <path fill="none" d=
        "M719.54,911.28c-15.9,0-31.81,0-47.71,0-4,0-7.6.85-11.32,5.59h60.94a18.94,18.94,0,0,0,2.37-.2c1.24-.16,2.43-.75,2.21-2.06a4,4,0,0,0-1.84-2.68A12.44,12.44,0,0,0,719.54,911.28Z"
        class="cls-5" display="block" stroke-opacity="0"/>
    <path fill="none" d=
        "M812.84,690.69c-1.8-1.69-3.45-4.7-8.21-1.81q19,21.74,37.68,43.61l4.5-3.76q-5.76-6.65-11.51-13.29C828,707,821,698.34,812.84,690.69Z"
        class="cls-6" display="block" stroke-opacity="0"/>
    <path fill="none" d=
        "M909.75,898.89c-2.58-1.75-3.77-2.89-5.18-3.45-6.38-2.56-13.32-1.79-19.84-3.07-1.72-.34-3.45-.63-5.18-.91-1.17,1.06-2.39,2-3.61,3,6.48,1.37,12.94,2.78,19.41,4.17A34.25,34.25,0,0,0,909.75,898.89Z"
        class="cls-5" display="block" stroke-opacity="0"/>
    <path fill="none" d=
        "M810.91,946.93c16.76,1.66,31.64-1.53,46-5.11s29.73-3.56,42.43-12.86C871.12,938,840.77,935.63,810.91,946.93Z"
        class="cls-5" display="block" stroke-opacity="0"/>
    <path fill="none" d=
        "M800.31,986.34c.7,1.51,2.2,1.92,4,1.26,19-6.89,38.42-12.52,56.74-21.16,2.35-1.12,4.95-2.64,4.71-6-.37-.26-.78-.75-1-.68-21.25,6.42-41.45,15.65-62.3,23.13C800.89,983.42,799.47,984.53,800.31,986.34Z"
        class="cls-5" display="block" stroke-opacity="0"/>
    <path fill="none" d=
        "M1108.65,1223.51c3.18,10.5,7.72,20.5,11,31,4.45,14.38,10.39,28.31,16,42.3,1.53,3.79,3.45,7.8,8,9.94-.63-6.83-20.73-61.46-30.06-83.25Z"
        class="cls-5" display="block" stroke-opacity="0"/>
    <path fill="none" d=
        "M883.38,1223.51c-8,23.67-18.56,46.39-25.43,70.44a34.94,34.94,0,0,0-1,15.21c6.28-10.57,25.13-64.09,31.1-85.65Z"
        class="cls-5" display="block" stroke-opacity="0"/>
    <path fill="none" d=
        "M940.7,1223.51c-.93,5.78-1.6,11.35-1.89,16.1-.17,2.75,0,5.63,3.93,7.34,1.86-7.15,3.59-15.34,5-23.44Z" class="cls-5"
        display="block" stroke-opacity="0"/>
    <path fill="none" d=
        "M1001.63,1223.51H996c-.06,31.71-.27,63.54.24,95.6,6-3.1,5.37-7.73,5.38-11.93.06-18.62,0-37.23,0-55.85Q1001.64,1237.43,1001.63,1223.51Z"
        class="cls-6" display="block" stroke-opacity="0"/>
    <path fill="none" d=
        "M817.12,1223.51q-6.2,10.92-12.39,21.85a2.59,2.59,0,0,0,.72,3.26c2.25.19,3.72-1.37,4.63-2.94,4.28-7.43,8.66-14.8,13-22.17Z"
        class="cls-5" display="block" stroke-opacity="0"/>
    <path fill="none" d=
        "M826.3,1114.87c-35.36,41.73-85.84,103.56-89.51,111,7.24-3.74,10.8-8,14.3-12.26,9.65-11.61,18.38-24.06,28.76-35,9-9.49,17.52-19.41,25.89-29.44Z"
        class="cls-6" display="block" stroke-opacity="0"/>
    <path fill="none" d=
        "M716.49,1074.51c-24.25,13.35-48.75,26.29-71.89,41.55-2.9,1.91-5.88,4.13-7.56,8.9,11.65-3.37,79.3-44,84-50A4.16,4.16,0,0,0,716.49,1074.51Z"
        class="cls-5" display="block" stroke-opacity="0"/>
    <path fill="none" d=
        "M648,1044.59c12.73-3.37,24.11-10.2,36.77-13.75,30.25-8.5,59-21.26,88.21-32.57,4.5-1.74,9.84-3.15,12.69-8.43-8.54.11-142,50-150.44,55.51C639.89,1047.11,643.74,1045.72,648,1044.59Z"
        class="cls-6" display="block" stroke-opacity="0"/>
    <path fill="none" d=
        "M1277.33,1076.74a738.61,738.61,0,0,0,68.39,40.47c4.87,2.55,9.67,5.09,15.2,5.46l1.73-2.59-84.53-47.66C1276.45,1074.66,1276.28,1076,1277.33,1076.74Z"
        class="cls-5" display="block" stroke-opacity="0"/>
    <path fill="none" d=
        "M1326.83,969.08c-30.22-6.17-60.73-11-91.21-15.85-.46,1.73-1,3.5-1.49,5.24,51.87,9.28,103.84,17.74,155.55,27.67,2.63.5,5.51.89,8.34-1.22-4.82-5.16-11.51-5.18-17.49-6.36C1362.7,975,1344.68,972.72,1326.83,969.08Z"
        class="cls-5" display="block" stroke-opacity="0"/>
    <path fill="none" d=
        "M1225.67,1181.46c-19.91-27.47-42.82-52.38-64.84-78l8.74,18.51c23.63,28.18,47.61,56,70.6,84.68a134.25,134.25,0,0,0,19.8,20.51c-1.74-8.23-5.21-12-8.36-16.07C1243.55,1200.64,1233.3,1192,1225.67,1181.46Z"
        class="cls-5" display="block" stroke-opacity="0"/>
    <path fill="none" d=
        "M1057.74,1232c-.34-2.84-.81-5.66-1.21-8.49h-6.25c4.38,23.94,8.78,48,13.24,72.33,4.38-4.28,3.29-7.79,3-11.24C1065.26,1266.8,1059.86,1249.73,1057.74,1232Z"
        class="cls-5" display="block" stroke-opacity="0"/>
    <path fill="none" d=
        "M1171.68,1060.41c0,1.63-.31,2.72,0,3q58.18,48.54,116.52,96.89c1.63,1.35,3.09,4,8.73,1.41-37.22-32.74-73.89-64.33-112.07-94.14C1181.21,1064.69,1177.3,1061,1171.68,1060.41Z"
        class="cls-6" display="block" stroke-opacity="0"/>
    <path fill="none" d=
        "M683.67,858.63c-7.24-7-16.23-4.7-23.75-6.81a235.38,235.38,0,0,0-24.28-5.15c-8.17-1.39-16.48-2-24.64-3.36-14.36-2.47-15.2-2.6-23.07.66C596.39,847.72,675,860.13,683.67,858.63Z"
        class="cls-6" display="block" stroke-opacity="0"/>
    <path fill="none" d="M810.14,759.35l2.69-2.24c-5.88-4-10.71-6.89-13.61-8C800.57,750.69,804.58,754.4,810.14,759.35Z"
        class="cls-5" display="block" stroke-opacity="0"/>
    <path fill="none" d=
        "M906.45,668.75c1.84-.82,3.79-1.56,5.76-2.29q-23.78-64.59-47.61-129.17a5.13,5.13,0,0,0-4-3.51,6.14,6.14,0,0,0-.74,6C876.18,582.48,889.84,626.17,906.45,668.75Z"
        class="cls-6" display="block" stroke-opacity="0"/>
    <path fill="none" d=
        "M854,669.57c5.4,8.86,10.51,17.93,16,26.76a31.05,31.05,0,0,1,3.17-6.16c-22.37-39.5-63-108.71-68.86-112.33a43.17,43.17,0,0,0,4.8,12.95C824,617.08,838.28,643.76,854,669.57Z"
        class="cls-5" display="block" stroke-opacity="0"/>
    <path fill="none" d=
        "M941.3,605.64c.15-6.93.59-13.79,1.25-20.54a6.82,6.82,0,0,0-5.33-3.75c.12,6.89,1.76,13.09,3.14,19.45C940.7,602.41,941,604,941.3,605.64Z"
        class="cls-5" display="block" stroke-opacity="0"/>
    <path fill="none" d=
        "M1001.83,582.83c.59-8.38-.35-16.82-.43-25.18-.18-20.47,3-41.21-2.75-61.38l-2.34.43v82.22C998.17,580.2,1000,581.47,1001.83,582.83Z"
        class="cls-6" display="block" stroke-opacity="0"/>
    <path fill="none" d="M747.27,700c-2.7-1.66-5.45-3.45-9.26-.14l50.45,40.93C787.8,733.29,760.16,707.9,747.27,700Z"
        class="cls-5" display="block" stroke-opacity="0"/>
    <path fill="none" d=
        "M790.66,668.79a1.51,1.51,0,0,0,1.14.27c1.57-.29-.74-1.54.71-.9a4,4,0,0,0-.47-4.47c-18.51-21.31-34.95-44.39-54.88-64.47-2-2-4.37-4.67-10.33-4.14,19.86,23.49,38.73,45.85,57.68,68.15A54.33,54.33,0,0,0,790.66,668.79Z"
        class="cls-6" display="block" stroke-opacity="0"/>
    <path fill="none" d=
        "M643.31,787.54c8.6,3,17.26,5.86,25.74,9.14,27,10.46,54.07,20.45,81.43,29.78a39.17,39.17,0,0,1,1.2-5.89C708.57,804.44,640.29,781.08,635.33,781,636.63,784.89,639.87,786.33,643.31,787.54Z"
        class="cls-5" display="block" stroke-opacity="0"/>
    <path fill="none" d=
        "M1057.5,598.55q5.48-32.17,11-64.38c-6.42,2.81-7,7.56-7.72,12.2-1.94,12.12-3.11,24.41-5.86,36.34-1.84,8-3.51,15.94-5.07,23.94A25.25,25.25,0,0,1,1057.5,598.55Z"
        class="cls-5" display="block" stroke-opacity="0"/>
    <path fill="none" d=
        "M658.69,720.72c30.49,17.82,60.6,36.3,91.46,53.45,8.52,4.74,17,9.62,25.5,14.38,1.66-1.43,3.34-2.85,5-4.27-47.43-27.53-127.43-72.2-134.66-74.15A39.64,39.64,0,0,0,658.69,720.72Z"
        class="cls-6" display="block" stroke-opacity="0"/>
    <path fill="none" d=
        "M742.92,961.7c13.38-2.85,27.79-2.24,39.8-11.1-15.61-.22-175,28.79-183.14,33.45,3.68,3,7.46,2.14,11.24,1.39,14.35-2.86,28.59-6.62,43.08-8.36C683.86,973.47,713.46,968,742.92,961.7Z"
        class="cls-5" display="block" stroke-opacity="0"/>
    <path fill="none" d=
        "M1192.71,1012.63a10.22,10.22,0,0,1-3.73-.7,10.36,10.36,0,0,1-5.94-13.41c37.12-96.32,40.33-179.84,9.52-248.26C1152.75,661.85,1069,629.8,1068.19,629.48a10.37,10.37,0,1,1,7.24-19.44c3.77,1.4,92.72,35.47,136,131.7,33.17,73.66,30.11,162.56-9.08,264.24A10.39,10.39,0,0,1,1192.71,1012.63Z"
        class="cls-5" display="block" stroke-opacity="0"/>
    <polygon fill="none" class="cls-7" display="block" points="867.26 1076.31 1131.1 1076.31 1169.64 1157.83 818.34 
        1157.83 867.26 1076.31" stroke-opacity="0"/>
    <rect x="814.39" y="1173.64" display="block" fill="none" width="355.25" class="cls-5" height="34.59" stroke-opacity="0"/>
    <path fill="none" d=
        "M1142.27,902.7c-23.41,23.06-55.92,40.73-84.6,56.33l-7.12,3.89c-19,10.35-38.48,19.22-57.38,27.79-38.81,17.62-75.47,34.26-107.2,62.66-1.59,1.43-3.19,2.9-4.79,4.39,49.45.11,228.07.26,228.07.26a36.7,36.7,0,0,0,33.88-22.94,2.29,2.29,0,0,1,.1-.23c25.46-61.7,43.76-124.56,42.56-192,0-2-.23-4-.31-6A194.49,194.49,0,0,1,1142.27,902.7Z"
        class="cls-5" display="block" stroke-opacity="0"/>
    <path fill="none" d=
        "M876.49,872.57c5.1-6.36,9.67-7.7,17.39-6.65,28.29,3.83,50.45,13.24,84,.4.92-.35,1.18-.43,1.22-.34a128.66,128.66,0,0,0,15.67-7.47,109.55,109.55,0,0,0,53.93-85.26,9.29,9.29,0,1,1,18.52,1.45c-3.24,41.1-27.46,79.38-63.19,99.92-13.41,7.7-27.75,12.69-42.17,16.77C949.58,905,937.11,919.18,928,933.27c-22.94,35.61-41.3,66.61-54.08,106,33.76-30.1,73.3-48.07,111.54-65.43,18.59-8.44,37.81-17.17,56.15-27.19l7.16-3.89c27.6-15,58.88-32,80.43-53.26,25.48-25.09,49.76-68,47.42-108-18.8-64.42-66-112-135.37-132.87a40,40,0,0,1-7.36-3.1c-15.09-31.45-42.29-57.12-75.1-69.13-1.76,16-3.51,32.23-1.48,48.22a75.65,75.65,0,0,0,4.47,17.46,17.35,17.35,0,0,1-6.29,2.35c-8.86,1.71-20.42,3.73-20.07,15.86s-5.5,16.44-15.37,19.53c-6.55,2-12.64,5.49-19,8.19-11.09,4.7-20,10.34-17.76,25.1.5,3.37-4.12,8.42-7.55,11.32-32.44,27.39-65.43,54.14-97.49,82-6.12,5.3-11.83,14.16-12.66,21.91-2.35,22.24,14.85,50.67,33.89,60.64,19.1-5.62,46.57-20.6,54.89-60.73,0,0-.61,46-39.39,65.93C838.58,899.27,861,892,876.49,872.57Z"
        class="cls-7" display="block" stroke-opacity="0"/>
    <path fill="none" d=
        "M1160.83,930.33q-6.09,31.21-14.58,61.63l-4.26,15.21c-1.32,4.77-3.13,10.89-6.15,16a52,52,0,0,1-27.26,22.45,54,54,0,0,1-17.57,2.72l-15.78,0c-10.52-.2-21-.16-31.57-.61q-31.58-.81-63.2-4.2,31.5-4.35,63-6.13c10.51-.78,21-1.06,31.54-1.59l15.77-.44a41.71,41.71,0,0,0,13.45-2.3,40.12,40.12,0,0,0,20.89-16.42c4.68-7.15,7.23-18.39,11.31-27.9Q1147.44,959.17,1160.83,930.33Z"
        class="cls-8" display="block" stroke-opacity="0"/>
    <path fill="none" d=
        "M1160,793.85a5.3,5.3,0,0,1-5.21-4.37c-14.68-82-121.92-118.55-123-118.91a5.3,5.3,0,1,1,3.34-10.06c4.65,1.55,114.28,38.87,130.07,127.11a5.28,5.28,0,0,1-4.28,6.14A4.31,4.31,0,0,1,1160,793.85Z"
        class="cls-9" display="block" stroke-opacity="0"/>
    <path fill="none" d="M1130.67,1148.42H857.31a6.62,6.62,0,1,1,0-13.24h273.36a6.62,6.62,0,0,1,0,13.24Z" class="cls-9"
        display="block" stroke-opacity="0"/>
    <path fill="none" d=
        "M1149.45,1197.27H834.58c-2.56,0-4.63-1.41-4.63-3.16s2.07-3.17,4.63-3.17h314.87c2.56,0,4.63,1.41,4.63,3.17S1152,1197.27,1149.45,1197.27Z"
        class="cls-8" display="block" stroke-opacity="0"/>
</svg>