<?xml version="1.0" encoding="UTF-8"?>
<!DOCTYPE svg PUBLIC "-//W3C//DTD SVG 1.1//EN" "http://www.w3.org/Graphics/SVG/1.1/DTD/svg11.dtd">
<!-- Creator: CorelDRAW X7 -->
<svg xmlns="http://www.w3.org/2000/svg" xml:space="preserve" width="206.605mm" height="281.702mm" version="1.1" style="shape-rendering:geometricPrecision; text-rendering:geometricPrecision; image-rendering:optimizeQuality; fill-rule:evenodd; clip-rule:evenodd"
viewBox="0 0 20661 28170"
 xmlns:xlink="http://www.w3.org/1999/xlink">
 <defs>
  <style type="text/css">
   <![CDATA[
    .fil0 {fill:url(#id0)}
   ]]>
  </style>
  <linearGradient id="id0" gradientUnits="userSpaceOnUse" x1="4091.27" y1="6109.3" x2="16569.2" y2="22060.9">
   <stop offset="0" style="stop-opacity:1; stop-color:#FF3F82"/>
   <stop offset="1" style="stop-opacity:1; stop-color:#A02EA0"/>
  </linearGradient>
 </defs>
 <g id="Capa_x0020_1">
  <metadata id="CorelCorpID_0Corel-Layer"/>
  <path id="XMLID_00000038407725126072878900000003159224915861510818_" class="fil0" d="M19605 14544l-15687 10411 16411 -7234c170,-935 272,-1804 332,-2584 -353,-198 -705,-396 -1056,-593l0 0zm-710 8106c41,-101 83,-201 123,-304 613,-1562 1013,-3050 1270,-4404l-16600 7317 15207 -2609zm-84 203l-15301 2626 14013 0c441,-778 881,-1654 1288,-2626zm-17738 5317l18754 0 0 -2277 -18754 0 0 2277zm1886 -2691l0 0 0 0 0 0 0 0zm1249 -3750l-796 1628 -202 1196 1167 -3083c-57,86 -114,172 -169,259l0 0zm595 -858l-1214 3206 2457 -4683c-434,476 -855,963 -1243,1477zm-2794 -6542c94,104 -9,218 -52,313 -73,159 -176,303 -263,456 -174,303 -133,434 193,577 169,75 331,169 519,197 28,4 55,7 83,11l-223 -5696c-520,372 -1024,763 -1457,1242 -427,474 -812,966 -809,1652 3,472 171,884 409,1280 123,207 289,241 500,180 267,-77 534,-157 804,-225 96,-25 221,-71 296,13l0 0zm1591 1156c309,-382 690,-705 1022,-1069 43,-49 88,-91 134,-131l1546 -9144c-139,111 -275,225 -409,345 -101,91 -213,126 -340,113 -707,-74 -1220,459 -1256,1261 -19,413 -43,826 -135,1229 -172,754 -685,1249 -1289,1671 -142,100 -284,199 -425,298l228 5838c351,10 660,-87 924,-411l0 0zm4056 -13591c98,506 21,1050 414,1456 230,238 524,328 732,367 -822,326 -1586,737 -2283,1256l-1547 9155c361,-214 776,-250 1209,-219 355,24 708,26 1058,4l4173 -11022c-136,-204 -290,-407 -463,-607 -1457,-1669 -3507,-2134 -4649,-2284 957,723 1261,1399 1356,1894l0 0zm501 11898c182,-37 501,-122 863,-305 61,-31 120,-64 178,-98l5175 -9862c82,-301 164,-603 247,-904 -697,-333 -1393,-666 -2089,-999 -270,326 -541,653 -811,980l-4276 11293c239,-23 477,-56 713,-105l0 0zm1363 -617c458,-344 775,-762 988,-1116 -36,1166 -364,2238 -966,3232 -810,1336 -1920,2419 -2978,3544 -11,12 -22,24 -33,36l-2802 5339 13066 -18739c117,-282 234,-564 351,-846 -626,-531 -1252,-1060 -1879,-1591 -244,195 -489,390 -734,586l-5013 9555 0 0zm-5626 11126l14340 -15930c245,-358 490,-717 735,-1075 -378,-609 -755,-1217 -1132,-1825 -330,84 -660,169 -989,253l-12954 18577zm114 151l15241 -13122c272,-344 545,-689 817,-1033 -183,-651 -366,-1303 -549,-1954 -345,11 -691,22 -1037,33l-14472 16076 0 0zm15299 -12926l-15159 13051 15929 -10570 0 0c189,-181 379,-362 568,-543 -33,-537 -67,-1074 -101,-1611 -166,-85 -386,-178 -655,-244 -216,-53 -413,-75 -582,-83z"/>
 </g>
</svg>
