<?xml version="1.0" encoding="utf-8"?>
<!-- Generator: Adobe Illustrator 16.0.0, SVG Export Plug-In . SVG Version: 6.00 Build 0)  -->
<!DOCTYPE svg PUBLIC "-//W3C//DTD SVG 1.1//EN" "http://www.w3.org/Graphics/SVG/1.1/DTD/svg11.dtd">
<svg version="1.1" id="Final_HIGHT" xmlns="http://www.w3.org/2000/svg" xmlns:xlink="http://www.w3.org/1999/xlink" x="0px"
	 y="0px" width="1084px" height="300px" viewBox="0 0 1084 300" enable-background="new 0 0 1084 300" xml:space="preserve">
<g>
	<g>
		<path fill="#009EFF" d="M33.091,184.384c0,68.169,38.449,84.67,102.755,84.67h114.47c64.306,0,103.703-16.501,103.703-84.67
			v-36.971l-75.057,5.935v8.851c0,33.761-6.461,47.329-40.222,47.329h-91.317c-29.542,0-39.438-10.388-41.45-35.603L33.091,184.384z
			"/>
		<path fill="#009EFF" d="M105.974,173.925"/>
		<path fill="#009EFF" d="M556.172,133.016l-47.036,133.041h-81.993l-40.341-124.95l64.271-3.882l19.8,67.097l23.838-68.191
			L556.172,133.016z M630.73,129.979l25.992,74.343l22.104-76.155l66.859-0.862l-45.234,138.753h-81.993l-48.115-134.504
			L630.73,129.979z"/>
	</g>
	<path fill="#FF6600" d="M1046.274,129.801c-5.016,41.647-25.492,50.217-94.402,53.941l-73.633,3.859
		c-29.903,1.607-34.402,7.396-34.402,28.294h207.072v50.161H778.241v-79.1c0-28.615,18.648-47.586,64.63-50.802l81.673-5.146
		c17.455-1.077,29.459-1.901,37.701-3.38L1046.274,129.801z M962.245,127.63"/>
	<g>
		<g>
			<path fill="#33BBFF" d="M229.789,30.946h-93.942c-64.307,0-102.755,15.82-102.755,83.986v69.451c0,0.529,0.049,1.062,0.053,1.585
				c23.859-3.808,47.719-7.415,73.01-10.893c-0.32-3.888-0.595-8.215-0.595-12.878v-25.079c0-28.937,8.102-46.646,45.72-46.646
				h83.602c5.188,0,10.159,0.35,14.227,1.002L229.789,30.946z"/>
			<path fill="#33BBFF" d="M288.608,146.712l-9.645,6.491v1.786c25.882-2.314,49.175-4.488,75.057-6.52v-33.537
				c0-4.118-0.152-8.037-0.435-11.78L288.608,146.712z"/>
		</g>
		<g>
			<path fill="#33BBFF" d="M744.742,129.746l31.271-96.211H706.24l-28.32,97.762C700.018,130.696,722.295,130.133,744.742,129.746z"
				/>
			<path fill="#33BBFF" d="M572.065,134.245c19.56-0.854,39.294-1.191,59.185-1.876l-34.336-98.834h-66.237l-36.476,105.039
				c20.149-1.14,40.511-2.618,61.063-3.571l8.213-23.823L572.065,134.245z"/>
			<path fill="#33BBFF" d="M452.609,141.369L421.355,33.535h-69.774l36.498,112.374
				C409.317,144.312,430.836,142.755,452.609,141.369z"/>
		</g>
	</g>
	<path fill="#FF8533" d="M845.76,109.466c0-24.115,9.332-29.346,39.555-29.346h47.269c45.656,0,47.587,4.545,47.587,23.518
		c0,18.271-2.294,22.716-29.903,25.34c32.285,0.412,64.248,1.138,95.834,1.991c1.171-8.965,1.594-19.305,1.594-31.709
		c0-48.553-17.363-68.313-84.246-68.313h-93.891c-64.307,0-91.09,15.176-91.09,61.158v26.839h67.292V109.466z"/>
	<polygon fill="#FF6600" points="348.557,85.068 330.996,30.96 246.359,30.96 279.503,133.074 	"/>
</g>
</svg>
