<svg viewBox="0 0 301 410" xmlns="http://www.w3.org/2000/svg" xml:space="preserve" version="1.1">
<style type="text/css">
	.st0{stroke:#d64072;stroke-width:5;fill:none;}
	.st1{stroke:#ed317f;stroke-width:5;fill:none;}
	.st2{stroke:#d62a9d;stroke-width:5;fill:none;}
	.st3{stroke:#bf209f;stroke-width:5;fill:none;}
</style>
 <g>
  <title>Layer 1</title>
  <g id="XMLID_00000046316226447205821160000008449013051117382055_">
   <rect height="33.15" width="273.01" class="st0" y="376.92999" x="15.62034" />
   <path d="m273.84034,332.67999l-222.74,38.22l203.98,0c6.42,-11.32 12.83,-24.07 18.76,-38.22z" class="st1" id="XMLID_00000150093684850071750530000001605246190906812858_"/>
   <path fill="#f4a261" d="m275.06034,329.71999c0.6,-1.47 1.2,-2.93 1.79,-4.43c8.93,-22.73 14.74,-44.39 18.49,-64.1l-241.65,106.51l221.37,-37.98z" class="st2" />
   <path d="m285.39034,211.71999l-228.36,151.55l238.91,-105.3c2.47,-13.62 3.95,-26.27 4.82,-37.62c-5.13,-2.88 -10.25,-5.76 -15.37,-8.63z" class="st3" />
   <path d="m281.05034,167.78999l-220.66,189.99l231.87,-153.87l0,0c2.76,-2.64 5.52,-5.28 8.28,-7.91c-0.49,-7.82 -0.98,-15.64 -1.47,-23.46c-2.43,-1.23 -5.63,-2.58 -9.54,-3.54c-3.14,-0.77 -6.01,-1.1 -8.48,-1.21z" class="st0" />
   <path d="m58.35034,355.95999l221.86,-191.02c3.96,-5.01 7.93,-10.03 11.89,-15.04c-2.66,-9.48 -5.32,-18.97 -7.98,-28.45c-5.03,0.16 -10.07,0.32 -15.1,0.48l-210.67,234.03z" class="st1" />
   <path d="m56.68034,353.75999l208.76,-231.9c3.56,-5.22 7.13,-10.44 10.69,-15.65c-5.49,-8.86 -10.99,-17.72 -16.48,-26.57c-4.8,1.23 -9.6,2.46 -14.39,3.68l-188.58,270.44z" class="st2" />
   <path d="m138.59034,191.78999c6.66,-5.01 11.28,-11.09 14.37,-16.24c-0.52,16.97 -5.29,32.57 -14.06,47.05c-11.78,19.45 -27.94,35.21 -43.34,51.59c-0.16,0.17 -0.32,0.35 -0.49,0.52l-40.79,77.72l190.21,-272.79c1.7,-4.11 3.41,-8.21 5.11,-12.32c-9.12,-7.72 -18.23,-15.43 -27.35,-23.15c-3.56,2.84 -7.13,5.68 -10.69,8.53l-72.97,139.09z" class="st3" />
   <path d="m118.74034,200.77999c2.65,-0.54 7.3,-1.78 12.57,-4.45c0.89,-0.45 1.74,-0.93 2.58,-1.42l75.34,-143.57c1.2,-4.38 2.39,-8.77 3.59,-13.15c-10.14,-4.85 -20.27,-9.7 -30.41,-14.55c-3.93,4.75 -7.87,9.51 -11.8,14.26l-62.25,164.4c3.48,-0.33 6.95,-0.82 10.38,-1.52z" class="st0" />
   <path d="m111.45034,27.56999c1.42,7.37 0.3,15.29 6.02,21.2c3.35,3.46 7.64,4.77 10.66,5.34c-11.97,4.75 -23.09,10.73 -33.23,18.29l-22.52,133.26c5.25,-3.11 11.3,-3.63 17.6,-3.19c5.16,0.36 10.3,0.39 15.4,0.06l60.75,-160.44c-1.99,-2.97 -4.22,-5.93 -6.75,-8.84c-21.21,-24.3 -51.05,-31.06 -67.67,-33.25c13.93,10.53 18.35,20.37 19.74,27.57z" class="st1" />
   <path d="m52.40034,225.41999c4.5,-5.56 10.05,-10.26 14.88,-15.57c0.63,-0.7 1.29,-1.32 1.96,-1.9l22.5,-133.11c-2.02,1.61 -4.01,3.28 -5.95,5.02c-1.48,1.33 -3.1,1.84 -4.95,1.64c-10.29,-1.07 -17.76,6.69 -18.29,18.36c-0.27,6.01 -0.63,12.02 -1.97,17.9c-2.49,10.97 -9.96,18.17 -18.75,24.32c-2.07,1.45 -4.14,2.89 -6.2,4.34l3.33,84.98c5.1,0.14 9.61,-1.26 13.44,-5.98z" class="st2" />
   <path d="m29.25034,208.58999c1.37,1.52 -0.13,3.18 -0.76,4.56c-1.06,2.31 -2.56,4.41 -3.83,6.63c-2.53,4.42 -1.93,6.33 2.81,8.41c2.46,1.08 4.82,2.46 7.56,2.86c0.4,0.06 0.8,0.11 1.2,0.16l-3.25,-82.91c-7.57,5.41 -14.9,11.1 -21.2,18.08c-6.22,6.89 -11.83,14.05 -11.78,24.05c0.04,6.86 2.49,12.86 5.95,18.63c1.8,3.01 4.21,3.51 7.28,2.62c3.89,-1.12 7.77,-2.29 11.7,-3.28c1.41,-0.36 3.22,-1.03 4.32,0.19z" class="st3"/>
   <path d="m69.92034,303.82999l-17.67,46.66l35.77,-68.17c-6.33,6.93 -12.45,14.02 -18.1,21.51z" class="st2" />
   <path d="m61.26034,316.31999l-11.59,23.7l-2.94,17.4l16.99,-44.87c-0.83,1.25 -1.66,2.5 -2.46,3.77z" class="st3"/>
   <rect height="0" width="0" y="370.89999" x="43.07034" id="XMLID_00000068666350477034526800000014106184141955932851_"/>
  </g>
 </g>
</svg>